<svg width="126" height="126" viewBox="0 0 126 126" fill="none" xmlns="http://www.w3.org/2000/svg">
<path d="M69 122.833H21C9 122.833 3 116.833 3 104.833V56.833C3 44.833 9 38.833 21 38.833M69 122.833C57 122.833 51 116.833 51 104.833M69 122.833H105C117 122.833 123 116.833 123 104.833V20.833C123 8.83301 117 2.83301 105 2.83301H69C57 2.83301 51 8.83301 51 20.833M21 38.833H51M21 38.833V26.833C21 20.233 26.4 14.833 33 14.833H51.66C51.18 16.633 51 18.613 51 20.833M51 104.833V38.833M51 104.833V20.833M51 20.833V38.833M75 38.833V68.833M99 38.833V68.833M27 68.833V92.833M93 92.833H81C77.7 92.833 75 95.533 75 98.833V122.833H99V98.833C99 95.533 96.3 92.833 93 92.833Z" stroke="#1E1E1E" stroke-width="5" stroke-miterlimit="10" stroke-linecap="round" stroke-linejoin="round"/>
</svg>
