<svg width="70" height="72" viewBox="0 0 70 72" fill="none" xmlns="http://www.w3.org/2000/svg">
<path d="M50.0082 9.46647C56.4749 9.46647 61.6748 14.6998 61.6748 21.1331C61.6748 27.4331 56.6749 32.5665 50.4415 32.7998C50.1749 32.7665 49.8749 32.7665 49.5749 32.7998M56.4418 62.7998C58.8418 62.2998 61.1085 61.3331 62.9752 59.8998C68.1752 55.9998 68.1752 49.5665 62.9752 45.6665C61.1419 44.2665 58.9085 43.3331 56.5419 42.7998M25.8417 32.3665C25.5084 32.3331 25.1084 32.3331 24.7417 32.3665C16.8084 32.0998 10.5084 25.5998 10.5084 17.5998C10.5084 9.43314 17.1084 2.7998 25.3084 2.7998C33.4752 2.7998 40.1085 9.43314 40.1085 17.5998C40.0752 25.5998 33.7752 32.0998 25.8417 32.3665ZM9.17476 44.6665C1.10809 50.0665 1.10809 58.8665 9.17476 64.2331C18.3414 70.3665 33.3749 70.3665 42.5415 64.2331C50.6082 58.8331 50.6082 50.0331 42.5415 44.6665C33.4082 38.5665 18.3748 38.5665 9.17476 44.6665Z" stroke="#1E1E1E" stroke-width="5" stroke-linecap="round" stroke-linejoin="round"/>
</svg>
