<svg width="29" height="28" viewBox="0 0 29 28" fill="none" xmlns="http://www.w3.org/2000/svg">
<path d="M16.0833 12.8665H8.08332M1.41666 12.8668V6.70674C1.41666 3.98674 3.61666 1.78674 6.33666 1.78674H13.83C16.55 1.78674 18.75 3.48008 18.75 6.20008M22.0567 14.2665C21.39 14.9065 21.07 15.8932 21.3367 16.9065C21.67 18.1465 22.8967 18.9332 24.1767 18.9332H25.4167V20.8665C25.4167 23.8132 23.03 26.1998 20.0833 26.1998H6.74999C3.80332 26.1998 1.41666 23.8132 1.41666 20.8665V11.5332C1.41666 8.58649 3.80332 6.19982 6.74999 6.19982H20.0833C23.0167 6.19982 25.4167 8.59982 25.4167 11.5332V13.4665H23.9767M22.0567 14.2665C22.55 13.7598 23.23 13.4665 23.9767 13.4665M22.0567 14.2665C21.4967 14.8132 21.1767 15.6001 21.2567 16.4401C21.3767 17.8801 22.6965 18.9334 24.1365 18.9334H26.7099C27.4699 18.9334 28.0833 18.3201 28.0833 17.5734V14.8268C28.0833 14.0801 27.4699 13.4668 26.7099 13.4668L23.9767 13.4665" stroke="#1E1E1E" stroke-width="1.66667" stroke-linecap="round" stroke-linejoin="round"/>
</svg>
