<svg width="29" height="30" viewBox="0 0 29 30" fill="none" xmlns="http://www.w3.org/2000/svg">
<path d="M15.4167 20.3333C15.4167 20.7014 15.1181 21 14.75 21C14.3819 21 14.0833 20.7014 14.0833 20.3333M15.4167 20.3333C15.4167 19.9652 15.1181 19.6666 14.75 19.6666C14.3819 19.6666 14.0833 19.9652 14.0833 20.3333M15.4167 20.3333H14.0833M12.0833 13V12.3333C12.0833 10.8605 13.2772 9.66663 14.75 9.66663C16.2228 9.66663 17.4167 10.8605 17.4167 12.3333V12.495C17.4167 13.2452 17.1187 13.9646 16.5883 14.495L14.75 16.3333M28.0833 15C28.0833 22.3637 22.1137 28.3333 14.75 28.3333C13.2308 28.3333 11.928 28.1169 10.7183 27.6842C9.57504 27.2753 9.00336 27.0708 8.78402 27.0192C6.76012 26.5432 5.92052 27.9302 4.17619 28.2209C3.31943 28.3637 2.55711 27.6622 2.6282 26.7966C2.69038 26.0397 3.21384 25.3238 3.42271 24.5969C3.85695 23.0858 3.26771 21.9402 2.64519 20.5964C1.85686 18.8946 1.41666 16.9986 1.41666 15C1.41666 7.63616 7.38619 1.66663 14.75 1.66663C22.1137 1.66663 28.0833 7.63616 28.0833 15Z" stroke="#1E1E1E" stroke-width="1.66667" stroke-linecap="round" stroke-linejoin="round"/>
</svg>
